<?xml version="1.0" encoding="utf-8" ?>
<svg baseProfile="full" height="400px" version="1.1" width="1055.0px" xmlns="http://www.w3.org/2000/svg" xmlns:ev="http://www.w3.org/2001/xml-events" xmlns:xlink="http://www.w3.org/1999/xlink"><defs /><ellipse cx="125.0" cy="200" fill="white" rx="65.0" ry="40" stroke="black" stroke-width="3" /><text font-size="30" x="102.5" y="207.5">123</text><ellipse cx="290.0" cy="200" fill="white" rx="80.0" ry="40" stroke="black" stroke-width="3" /><text font-size="30" x="260.0" y="207.5">2232</text><ellipse cx="497.5" cy="200" fill="white" rx="107.5" ry="40" stroke="black" stroke-width="3" /><ellipse cx="439.1666666666667" cy="200" fill="white" rx="20.0" ry="20.0" stroke="black" stroke-width="3" /><text font-size="30" x="431.6666666666667" y="207.5">0</text><ellipse cx="501.6666666666667" cy="200" fill="white" rx="32.5" ry="20.0" stroke="black" stroke-width="3" /><text font-size="30" x="479.1666666666667" y="207.5">111</text><ellipse cx="564.1666666666667" cy="200" fill="white" rx="20.0" ry="20.0" stroke="black" stroke-width="3" /><text font-size="30" x="556.6666666666667" y="207.5">4</text><line stroke="black" stroke-width="3" x1="459.1666666666667" x2="469.1666666666667" y1="200" y2="200" /><line stroke="black" stroke-width="3" x1="534.1666666666667" x2="544.1666666666667" y1="200" y2="200" /><ellipse cx="735.0" cy="200" fill="white" rx="110.0" ry="40" stroke="black" stroke-width="3" /><text font-size="30" x="690.0" y="207.5">144123</text><ellipse cx="930.0" cy="200" fill="white" rx="65.0" ry="40" stroke="black" stroke-width="3" /><text font-size="30" x="907.5" y="207.5">321</text><line stroke="black" stroke-width="3" x1="190.0" x2="210.0" y1="200" y2="200" /><line stroke="black" stroke-width="3" x1="370.0" x2="390.0" y1="200" y2="200" /><line stroke="black" stroke-width="3" x1="605.0" x2="625.0" y1="200" y2="200" /><line stroke="black" stroke-width="3" x1="845.0" x2="865.0" y1="200" y2="200" /></svg>